<svg width="106" height="106" fill="none" xmlns="http://www.w3.org/2000/svg"><path d="M52.66 105.33A52.66 52.66 0 1052.66 0a52.66 52.66 0 000 105.33z" fill="#F9BD17"/><path d="M22.4 26.4l46.45-10.32 14.01 63-46.45 10.33-14-63z" fill="#F49E20"/><path d="M28.87 20.44h47.59V85h-47.6V20.44z" fill="#fff"/><path d="M35.08 25.71h35.1v7.68h-35.1v-7.68z" fill="#1CA1D7"/><path d="M34.95 38.75h35.43v1.38H34.95v-1.38zM34.95 43.56h35.43v1.38H34.95v-1.38zM34.95 48.37h35.43v1.38H34.95v-1.38zM34.95 53.18h35.43v1.38H34.95v-1.38zM34.95 58h35.43v1.37H34.95v-1.38zM34.95 62.8h35.43v1.38H34.95V62.8zM34.95 70.9h12.44v1.38H34.95V70.9zM34.95 75.71h12.44v1.38H34.95V75.7z" fill="#E3E3E3"/><path d="M63.25 81.13a7.13 7.13 0 100-14.27 7.13 7.13 0 000 14.27z" fill="#FABD17"/><path d="M62.1 76.7a.82.82 0 01-.59-.25l-1.44-1.44a.82.82 0 111.16-1.16l.86.86 3.17-3.17a.82.82 0 111.16 1.16l-3.75 3.75a.82.82 0 01-.58.24z" fill="#fff"/></svg>
